<?xml version="1.0" standalone="no"?>
<!DOCTYPE svg PUBLIC "-//W3C//DTD SVG 20010904//EN"
 "http://www.w3.org/TR/2001/REC-SVG-20010904/DTD/svg10.dtd">
<svg version="1.0" xmlns="http://www.w3.org/2000/svg"
 width="1500.000000pt" height="1500.000000pt" viewBox="0 0 1500.000000 1500.000000"
 preserveAspectRatio="xMidYMid meet">
<metadata>
Created by potrace 1.14, written by Peter Selinger 2001-2017
</metadata>
<g transform="translate(0.000000,1500.000000) scale(0.100000,-0.100000)"
fill="#000000" stroke="none">
<path d="M7219 13806 c-2 -2 -35 -6 -74 -10 -65 -5 -229 -29 -285 -41 -14 -3
-41 -8 -60 -11 -107 -19 -349 -92 -500 -151 -618 -241 -1191 -667 -1780 -1319
-19 -22 -69 -80 -110 -129 -41 -50 -77 -92 -80 -95 -15 -13 -196 -249 -276
-357 -225 -306 -457 -665 -685 -1060 -53 -90 -63 -110 -166 -298 -85 -155
-322 -614 -328 -635 -1 -3 -23 -50 -50 -105 -102 -213 -175 -368 -175 -371 0
-2 -14 -34 -31 -71 -17 -38 -42 -92 -55 -122 -93 -203 -361 -850 -446 -1076
-17 -44 -38 -100 -48 -125 -9 -25 -50 -133 -89 -240 -39 -107 -76 -204 -80
-215 -14 -32 -55 -150 -54 -152 1 -2 -5 -20 -14 -40 -20 -49 -184 -525 -228
-663 -18 -58 -38 -116 -43 -130 -6 -14 -35 -104 -65 -200 -30 -96 -76 -240
-101 -320 -44 -140 -164 -542 -205 -685 -103 -364 -143 -503 -146 -519 -3 -10
-15 -58 -28 -105 -14 -47 -34 -122 -46 -166 -11 -44 -32 -120 -45 -170 -21
-76 -125 -478 -140 -540 -34 -137 -103 -423 -122 -505 -43 -184 -105 -454
-109 -475 -66 -323 -87 -401 -115 -430 l-29 -30 -1 -205 c-1 -113 1 -216 4
-230 4 -14 8 -37 11 -53 48 -262 311 -512 584 -554 58 -9 205 -9 251 0 198 39
333 123 465 287 29 36 75 90 102 119 48 51 50 55 47 104 -2 39 4 64 23 102 21
43 116 213 148 267 5 9 25 43 44 75 45 78 229 358 304 463 67 94 258 350 287
384 10 11 56 66 102 121 45 55 88 105 93 111 6 6 46 51 89 100 100 112 467
478 565 564 41 36 81 72 90 80 9 9 45 40 81 70 36 30 67 57 70 60 3 3 21 17
42 32 20 15 42 34 50 41 43 43 535 402 569 415 4 2 0 -25 -10 -60 -148 -504
-223 -769 -287 -1013 -69 -260 -106 -400 -109 -415 -2 -8 -26 -103 -53 -210
-28 -107 -87 -348 -133 -535 -78 -322 -83 -346 -82 -450 0 -70 6 -132 16 -171
73 -269 273 -468 536 -535 60 -15 102 -18 201 -15 185 6 232 23 456 167 214
138 345 216 564 336 165 91 408 208 635 305 77 33 154 66 172 74 17 8 36 14
41 14 6 0 32 9 59 21 79 35 317 117 493 170 271 83 460 130 825 205 39 8 321
53 370 59 28 3 66 8 85 11 19 2 55 7 80 9 25 3 59 7 75 9 17 3 66 8 110 11 44
4 96 9 115 11 232 24 1038 24 1190 -1 14 -2 63 -6 110 -10 47 -3 99 -8 115
-10 17 -2 57 -7 89 -10 72 -7 130 -15 296 -40 14 -3 43 -7 65 -11 503 -77
1138 -257 1650 -467 206 -84 260 -109 490 -222 316 -156 663 -356 790 -455 33
-26 78 -58 100 -72 45 -28 165 -77 204 -85 14 -2 44 -8 66 -13 51 -12 238 -5
265 10 11 6 20 9 20 6 0 -3 24 3 53 13 359 124 554 465 486 848 -6 35 -11 66
-11 70 0 5 -4 15 -8 23 -4 8 -11 33 -14 55 -4 22 -13 67 -21 101 -8 34 -16 73
-19 85 -2 13 -10 47 -16 74 -6 28 -13 57 -15 65 -2 8 -18 76 -35 150 -17 74
-33 142 -35 150 -2 8 -40 164 -85 345 -45 182 -83 338 -85 347 -2 10 -15 60
-29 111 -14 51 -39 144 -55 207 -68 261 -169 628 -251 910 -28 96 -52 180 -54
185 -5 19 -37 131 -66 225 -16 52 -54 178 -85 280 -149 489 -444 1369 -592
1765 -111 297 -250 661 -300 785 -30 74 -62 153 -71 175 -8 22 -23 58 -33 80
-9 22 -33 81 -53 130 -21 50 -43 104 -50 120 -8 17 -59 134 -114 260 -110 251
-139 317 -287 630 -55 116 -240 488 -295 590 -20 39 -61 115 -90 170 -62 117
-222 402 -265 473 -14 22 -137 229 -150 250 -95 161 -326 506 -475 712 -107
147 -359 473 -379 490 -3 3 -31 34 -61 70 -30 36 -59 70 -65 76 -421 470 -816
809 -1250 1074 -99 60 -336 183 -425 220 -41 18 -88 38 -105 45 -188 82 -496
167 -720 200 -22 3 -54 8 -72 11 -17 3 -49 8 -70 10 -51 6 -549 15 -554 10z
m441 -1470 c14 -4 43 -9 65 -12 64 -8 188 -42 293 -79 94 -34 316 -139 357
-169 19 -14 19 -15 -10 -38 -152 -119 -469 -422 -640 -612 -44 -49 -85 -94
-90 -100 -6 -6 -30 -36 -55 -66 -25 -30 -47 -57 -50 -60 -33 -28 -319 -403
-441 -577 -137 -194 -388 -584 -479 -743 -5 -8 -31 -53 -58 -100 -67 -116
-189 -335 -251 -450 -49 -91 -381 -757 -414 -830 -8 -19 -38 -84 -66 -143 -28
-60 -51 -110 -51 -112 0 -2 -13 -32 -29 -67 -141 -309 -400 -938 -554 -1351
-41 -109 -79 -203 -83 -207 -5 -5 -51 -27 -101 -49 -196 -86 -623 -296 -713
-351 -8 -5 -90 -52 -183 -105 -470 -269 -909 -579 -1378 -974 l-36 -30 61 202
c34 111 64 207 67 212 4 6 9 24 13 40 4 17 46 149 93 295 48 146 88 270 89
275 1 6 37 109 79 230 42 121 80 231 85 245 137 417 557 1477 745 1885 21 44
48 105 62 135 93 210 359 748 483 975 501 920 999 1602 1507 2065 379 347 783
574 1146 646 10 2 26 5 35 8 9 3 44 8 77 12 33 3 62 8 64 10 6 6 334 -3 361
-10z m1930 -1398 c52 -67 110 -142 128 -167 155 -219 272 -391 272 -401 0 -4
9 -15 20 -25 11 -10 20 -22 20 -27 0 -5 13 -28 29 -51 29 -43 180 -288 211
-342 9 -16 55 -97 102 -180 293 -516 570 -1083 860 -1759 158 -370 455 -1123
445 -1132 -2 -2 -50 12 -108 31 -57 20 -113 37 -124 40 -11 2 -58 16 -105 31
-218 67 -681 184 -791 200 -14 2 -48 8 -75 15 -27 6 -62 13 -79 15 -16 3 -64
11 -105 19 -41 8 -93 17 -115 20 -22 3 -65 10 -95 15 -30 5 -75 12 -100 15
-25 3 -61 7 -80 10 -261 36 -515 58 -820 71 -328 14 -775 6 -1120 -20 -47 -4
-101 -9 -120 -11 -19 -2 -64 -7 -100 -10 -36 -3 -76 -8 -90 -10 -14 -2 -50 -7
-80 -10 -78 -7 -133 -15 -150 -20 -8 -2 -40 -7 -70 -10 -46 -5 -329 -52 -422
-70 -16 -3 -28 -3 -28 -1 0 8 150 353 235 541 84 186 380 787 471 955 73 135
190 345 219 390 12 19 59 98 105 175 144 243 451 695 592 870 224 278 491 565
669 720 83 72 290 234 299 234 3 1 48 -54 100 -121z m-570 -5063 c91 -4 188
-8 215 -10 171 -13 216 -16 236 -20 12 -3 52 -7 88 -10 37 -3 77 -7 91 -10 14
-3 48 -7 75 -10 28 -3 73 -10 100 -15 28 -5 73 -12 100 -15 28 -3 68 -10 90
-15 22 -5 60 -12 85 -15 24 -4 47 -8 50 -10 3 -2 26 -6 50 -10 25 -4 83 -15
129 -26 47 -11 92 -21 100 -23 9 -1 30 -6 46 -10 17 -4 50 -12 75 -18 92 -22
438 -121 550 -158 218 -71 627 -228 720 -275 14 -7 36 -17 50 -23 14 -6 118
-56 232 -111 l206 -101 21 -62 c67 -206 252 -852 382 -1338 63 -234 62 -230
46 -230 -8 0 -17 3 -21 8 -4 4 -11 7 -14 8 -4 0 -20 6 -37 14 -251 108 -891
325 -1105 375 -8 2 -78 19 -155 39 -200 50 -471 109 -605 130 -19 3 -47 8 -62
11 -16 3 -40 7 -55 10 -25 5 -86 14 -198 30 -22 3 -56 8 -75 11 -19 3 -51 7
-70 9 -19 2 -53 6 -75 9 -22 3 -67 8 -100 11 -33 3 -78 8 -100 10 -392 44
-1219 55 -1570 20 -37 -4 -117 -11 -235 -20 -25 -2 -63 -6 -85 -9 -22 -3 -67
-8 -100 -12 -118 -11 -436 -60 -590 -89 -16 -3 -39 -7 -50 -9 -11 -2 -45 -8
-75 -15 -30 -6 -64 -13 -75 -15 -167 -35 -383 -87 -540 -131 -71 -20 -138 -38
-148 -40 -9 -2 -21 -6 -25 -9 -5 -3 -19 -7 -33 -9 -81 -15 -670 -224 -852
-302 -48 -21 -91 -35 -94 -31 -3 3 8 59 26 123 18 65 34 125 36 133 7 28 123
425 190 645 128 427 380 1203 396 1219 14 16 294 101 513 157 141 36 113 30
314 73 156 33 196 41 252 51 206 34 246 39 370 55 47 6 101 13 120 15 19 3 62
7 95 10 33 3 85 8 115 11 106 9 161 13 318 19 86 4 158 7 159 8 4 4 353 -1
503 -8z"/>
</g>
</svg>
